<svg xmlns="http://www.w3.org/2000/svg" xmlns:xlink="http://www.w3.org/1999/xlink" width="500" zoomAndPan="magnify" viewBox="0 0 375 374.999991" height="500" preserveAspectRatio="xMidYMid meet" version="1.0"><defs><g/></defs><g fill="#ffffff" fill-opacity="1"><g transform="translate(22.470722, 325.830506)"><g><path d="M 113.6875 -121.328125 L 113.6875 -47.515625 C 113.6875 -36.203125 114.882812 -27.925781 117.28125 -22.6875 C 119.6875 -17.457031 123.929688 -13.992188 130.015625 -12.296875 C 136.097656 -10.597656 145.785156 -9.609375 159.078125 -9.328125 L 159.078125 0 C 124.296875 -0.84375 98.421875 -1.265625 81.453125 -1.265625 C 67.304688 -1.265625 49.488281 -0.984375 28 -0.421875 L 14.421875 0 L 14.421875 -8.484375 C 23.753906 -9.046875 30.613281 -10.175781 35 -11.875 C 39.382812 -13.570312 42.351562 -16.820312 43.90625 -21.625 C 45.457031 -26.4375 46.234375 -34.21875 46.234375 -44.96875 L 46.234375 -255.375 C 46.234375 -266.113281 45.457031 -273.882812 43.90625 -278.6875 C 42.351562 -283.5 39.382812 -286.753906 35 -288.453125 C 30.613281 -290.148438 23.753906 -291.285156 14.421875 -291.859375 L 14.421875 -300.328125 C 28.847656 -299.484375 50.34375 -299.0625 78.90625 -299.0625 L 125.984375 -299.484375 C 131.640625 -299.765625 138.144531 -299.90625 145.5 -299.90625 C 183.675781 -299.90625 212.800781 -292.335938 232.875 -277.203125 C 252.957031 -262.078125 263 -241.789062 263 -216.34375 C 263 -200.789062 259.039062 -185.875 251.125 -171.59375 C 243.207031 -157.3125 229.84375 -145.363281 211.03125 -135.75 C 192.226562 -126.132812 167.273438 -121.328125 136.171875 -121.328125 Z M 139.984375 -291.859375 C 132.347656 -291.859375 126.757812 -290.863281 123.21875 -288.875 C 119.6875 -286.894531 117.210938 -283.359375 115.796875 -278.265625 C 114.390625 -273.179688 113.6875 -265.550781 113.6875 -255.375 L 113.6875 -129.8125 L 131.921875 -129.8125 C 154.828125 -129.8125 170.664062 -137.160156 179.4375 -151.859375 C 188.207031 -166.566406 192.59375 -186.503906 192.59375 -211.671875 C 192.59375 -239.109375 188.5625 -259.332031 180.5 -272.34375 C 172.4375 -285.351562 158.929688 -291.859375 139.984375 -291.859375 Z M 139.984375 -291.859375 "/></g></g></g><g fill="#ffffff" fill-opacity="1"><g transform="translate(160.160248, 361.697724)"><g><path d="M 198.515625 -259.796875 C 196.804688 -242.429688 195.953125 -226.773438 195.953125 -212.828125 C 195.953125 -200.597656 196.316406 -190.570312 197.046875 -182.75 L 188.609375 -182.75 C 186.648438 -201.582031 184.203125 -215.582031 181.265625 -224.75 C 178.335938 -233.925781 173.203125 -240.65625 165.859375 -244.9375 C 158.523438 -249.21875 147.273438 -251.359375 132.109375 -251.359375 L 108.984375 -251.359375 C 100.179688 -251.359375 93.757812 -250.6875 89.71875 -249.34375 C 85.6875 -248 82.9375 -245.242188 81.46875 -241.078125 C 80 -236.921875 79.265625 -230.195312 79.265625 -220.90625 L 79.265625 -130.640625 L 106.046875 -130.640625 C 114.609375 -130.640625 121.210938 -132.65625 125.859375 -136.6875 C 130.515625 -140.726562 133.632812 -145.5 135.21875 -151 C 136.8125 -156.5 138.097656 -163.410156 139.078125 -171.734375 L 140.171875 -179.078125 L 148.609375 -179.078125 C 147.878906 -168.796875 147.515625 -157.296875 147.515625 -144.578125 L 147.515625 -126.96875 C 147.515625 -114.488281 148.25 -97.117188 149.71875 -74.859375 L 141.28125 -74.859375 C 141.03125 -76.566406 140.289062 -82.5 139.0625 -92.65625 C 137.84375 -102.8125 134.484375 -110.457031 128.984375 -115.59375 C 123.484375 -120.726562 115.835938 -123.296875 106.046875 -123.296875 L 79.265625 -123.296875 L 79.265625 -38.890625 C 79.265625 -29.597656 80.242188 -22.867188 82.203125 -18.703125 C 84.160156 -14.546875 87.582031 -11.734375 92.46875 -10.265625 C 97.363281 -8.804688 105.316406 -7.832031 116.328125 -7.34375 L 116.328125 0 C 103.609375 -0.726562 85.625 -1.09375 62.375 -1.09375 C 41.34375 -1.09375 25.6875 -0.726562 15.40625 0 L 15.40625 -7.34375 C 24.21875 -7.832031 30.640625 -8.804688 34.671875 -10.265625 C 38.710938 -11.734375 41.46875 -14.546875 42.9375 -18.703125 C 44.40625 -22.867188 45.140625 -29.597656 45.140625 -38.890625 L 45.140625 -220.90625 C 45.140625 -230.195312 44.40625 -236.921875 42.9375 -241.078125 C 41.46875 -245.242188 38.710938 -248.0625 34.671875 -249.53125 C 30.640625 -251 24.21875 -251.976562 15.40625 -252.46875 L 15.40625 -259.796875 C 39.382812 -259.066406 74.859375 -258.703125 121.828125 -258.703125 C 157.785156 -258.703125 183.347656 -259.066406 198.515625 -259.796875 Z M 198.515625 -259.796875 "/></g></g></g><g fill="#ffffff" fill-opacity="1"><g transform="translate(148.720778, 360.897799)"><g><path d="M 198.515625 -259.796875 C 196.804688 -242.429688 195.953125 -226.773438 195.953125 -212.828125 C 195.953125 -200.597656 196.316406 -190.570312 197.046875 -182.75 L 188.609375 -182.75 C 186.648438 -201.582031 184.203125 -215.582031 181.265625 -224.75 C 178.335938 -233.925781 173.203125 -240.65625 165.859375 -244.9375 C 158.523438 -249.21875 147.273438 -251.359375 132.109375 -251.359375 L 108.984375 -251.359375 C 100.179688 -251.359375 93.757812 -250.6875 89.71875 -249.34375 C 85.6875 -248 82.9375 -245.242188 81.46875 -241.078125 C 80 -236.921875 79.265625 -230.195312 79.265625 -220.90625 L 79.265625 -130.640625 L 106.046875 -130.640625 C 114.609375 -130.640625 121.210938 -132.65625 125.859375 -136.6875 C 130.515625 -140.726562 133.632812 -145.5 135.21875 -151 C 136.8125 -156.5 138.097656 -163.410156 139.078125 -171.734375 L 140.171875 -179.078125 L 148.609375 -179.078125 C 147.878906 -168.796875 147.515625 -157.296875 147.515625 -144.578125 L 147.515625 -126.96875 C 147.515625 -114.488281 148.25 -97.117188 149.71875 -74.859375 L 141.28125 -74.859375 C 141.03125 -76.566406 140.289062 -82.5 139.0625 -92.65625 C 137.84375 -102.8125 134.484375 -110.457031 128.984375 -115.59375 C 123.484375 -120.726562 115.835938 -123.296875 106.046875 -123.296875 L 79.265625 -123.296875 L 79.265625 -38.890625 C 79.265625 -29.597656 80.242188 -22.867188 82.203125 -18.703125 C 84.160156 -14.546875 87.582031 -11.734375 92.46875 -10.265625 C 97.363281 -8.804688 105.316406 -7.832031 116.328125 -7.34375 L 116.328125 0 C 103.609375 -0.726562 85.625 -1.09375 62.375 -1.09375 C 41.34375 -1.09375 25.6875 -0.726562 15.40625 0 L 15.40625 -7.34375 C 24.21875 -7.832031 30.640625 -8.804688 34.671875 -10.265625 C 38.710938 -11.734375 41.46875 -14.546875 42.9375 -18.703125 C 44.40625 -22.867188 45.140625 -29.597656 45.140625 -38.890625 L 45.140625 -220.90625 C 45.140625 -230.195312 44.40625 -236.921875 42.9375 -241.078125 C 41.46875 -245.242188 38.710938 -248.0625 34.671875 -249.53125 C 30.640625 -251 24.21875 -251.976562 15.40625 -252.46875 L 15.40625 -259.796875 C 39.382812 -259.066406 74.859375 -258.703125 121.828125 -258.703125 C 157.785156 -258.703125 183.347656 -259.066406 198.515625 -259.796875 Z M 198.515625 -259.796875 "/></g></g></g></svg>